<svg width="40" height="40" viewBox="0 0 40 40" fill="none" xmlns="http://www.w3.org/2000/svg">
<g clip-path="url(#clip0)">
<path d="M39.4018 24.8367C36.7296 35.5567 25.8686 42.0732 15.1639 39.4009C4.44355 36.7287 -2.07301 25.8681 0.599334 15.1635C3.27152 4.44354 14.1168 -2.07302 24.8371 0.599321C35.5418 3.25588 42.0742 14.1165 39.4018 24.8367Z" fill="url(#paint0_linear)"/>
<path d="M29.5223 17.508C29.9129 14.8517 27.8973 13.4142 25.116 12.4611L26.0223 8.85175L23.8348 8.30487L22.9598 11.8205C22.3817 11.6799 21.7879 11.5392 21.1942 11.4142L22.0692 7.883L19.8817 7.33612L18.991 10.9299C18.5067 10.8205 18.0379 10.7111 17.5848 10.6017V10.5861L14.5535 9.83612L13.9754 12.1799C13.9754 12.1799 15.6004 12.5549 15.5692 12.5705C16.4598 12.7892 16.616 13.383 16.5848 13.8517L15.5535 17.9611C15.616 17.9767 15.6942 17.9924 15.7879 18.0392C15.7098 18.0236 15.6317 18.008 15.5535 17.9767L14.116 23.7267C14.0067 23.9924 13.7254 24.3986 13.116 24.2424C13.1317 24.2736 11.5223 23.8517 11.5223 23.8517L10.4285 26.3674L13.2879 27.0861C13.8192 27.2267 14.3348 27.3517 14.8504 27.4924L13.9442 31.133L16.1317 31.6799L17.0379 28.0705C17.6317 28.2267 18.2254 28.383 18.7879 28.5236L17.8973 32.1174L20.0848 32.6642L20.991 29.0236C24.741 29.7267 27.5535 29.4455 28.7254 26.0549C29.6785 23.3361 28.6785 21.758 26.7098 20.7267C28.1629 20.3986 29.241 19.4455 29.5223 17.508ZM24.5067 24.5392C23.8348 27.258 19.241 25.7892 17.7567 25.4142L18.9598 20.5861C20.4442 20.9611 25.2254 21.6955 24.5067 24.5392ZM25.1942 17.4611C24.5692 19.9455 20.7567 18.6799 19.5223 18.3674L20.616 13.9924C21.8504 14.3049 25.8348 14.883 25.1942 17.4611Z" fill="white"/>
</g>
<defs>
<linearGradient id="paint0_linear" x1="19.9893" y1="-0.00947792" x2="19.9893" y2="39.9961" gradientUnits="userSpaceOnUse">
<stop stop-color="#F9AA4B"/>
<stop offset="1" stop-color="#F7931A"/>
</linearGradient>
<clipPath id="clip0">
<rect width="40" height="40" fill="white"/>
</clipPath>
</defs>
</svg>
