<svg width="40" height="40" viewBox="0 0 40 40" fill="none" xmlns="http://www.w3.org/2000/svg">
<path d="M39.8914 20C39.8914 30.9875 30.9845 39.8947 19.997 39.8947C9.00949 39.8947 0.102421 30.9875 0.102421 20C0.102421 9.01254 9.00949 0.105469 19.997 0.105469C30.9844 0.105469 39.8914 9.01254 39.8914 20Z" fill="#6374C3"/>
<path d="M19.9331 10.769L19.8102 11.1867V23.3064L19.9331 23.4291L25.5589 20.1037L19.9331 10.769Z" fill="white"/>
<path d="M19.9331 10.769L14.3073 20.1037L19.9331 23.4291V17.5466V10.769Z" fill="white"/>
<path d="M19.9326 25.259L19.8633 25.3435V29.6608L19.9326 29.863L25.5618 21.9353L19.9326 25.259Z" fill="white"/>
<path d="M19.9331 29.863V25.259L14.3073 21.9353L19.9331 29.863Z" fill="white"/>
<path d="M19.9334 23.4301L25.5591 20.1047L19.9334 17.5476V23.4301Z" fill="white"/>
<path d="M14.3073 20.1047L19.933 23.4301V17.5476L14.3073 20.1047Z" fill="white"/>
</svg>
